<svg width="220" height="306" viewBox="0 0 220 306" fill="none" xmlns="http://www.w3.org/2000/svg">
<g clip-path="url(#clip0_44_388)">
<path d="M21 11C19.9091 19.5533 13.8788 21.2164 11 20.9788" stroke="#3B3B3B"/>
<path d="M31 11C28.8182 28.1065 16.7576 31.4328 11 30.9576" stroke="#3B3B3B"/>
<path d="M41 11C37.7273 36.6598 19.6364 41.6492 11 40.9364" stroke="#3B3B3B"/>
<path d="M51 11C46.6364 45.2131 22.5152 51.8656 11 50.9153" stroke="#3B3B3B"/>
<path d="M61 11C55.5455 53.7663 25.3939 62.082 11 60.8941" stroke="#3B3B3B"/>
<path d="M71 11C64.4545 62.3196 28.2727 72.2984 11 70.8729" stroke="#3B3B3B"/>
<path d="M81 11C73.3636 70.8729 31.1515 82.5148 11 80.8517" stroke="#3B3B3B"/>
<path d="M91 11C82.2727 79.4262 34.0303 92.7312 11 90.8305" stroke="#3B3B3B"/>
<path d="M101 11C91.1818 87.9794 36.9091 102.948 11 100.809" stroke="#3B3B3B"/>
<path d="M111 11C100.091 96.5327 39.7879 113.164 11 110.788" stroke="#3B3B3B"/>
<path d="M121 11C109 105.086 42.6667 123.38 11 120.767" stroke="#3B3B3B"/>
<path d="M131 11C117.909 113.639 45.5455 133.597 11 130.746" stroke="#3B3B3B"/>
<path d="M141 11C126.818 122.193 48.4242 143.813 11 140.725" stroke="#3B3B3B"/>
<path d="M151 11C135.727 130.746 51.303 154.03 11 150.703" stroke="#3B3B3B"/>
<path d="M161 10C144.636 138.299 54.1818 163.246 11 159.682" stroke="#3B3B3B"/>
<path d="M171 11C153.545 147.852 57.0606 174.462 11 170.661" stroke="#3B3B3B"/>
<path d="M181 11C162.455 156.406 59.9394 184.679 11 180.64" stroke="#3B3B3B"/>
<path d="M191 11C171.364 164.959 62.8182 194.895 11 190.619" stroke="#3B3B3B"/>
<path d="M201 11C180.273 173.512 65.697 205.112 11 200.597" stroke="#3B3B3B"/>
<path d="M211 11C189.182 182.065 68.5758 215.328 11 210.576" stroke="#3B3B3B"/>
<path d="M221 11C198.091 190.619 71.4545 225.545 11 220.555" stroke="#3B3B3B"/>
<path d="M230 11C206 199.172 73.3333 235.761 10 230.534" stroke="#3B3B3B"/>
<path d="M239 16C215 204.172 82.3333 240.761 19 235.534" stroke="#3B3B3B"/>
<path d="M248 21C224 209.172 91.3333 245.761 28 240.534" stroke="#3B3B3B"/>
<path d="M257 26C233 214.172 100.333 250.761 37 245.534" stroke="#3B3B3B"/>
<path d="M266 31C242 219.172 109.333 255.761 46 250.534" stroke="#3B3B3B"/>
<path d="M275 36C251 224.172 118.333 260.761 55 255.534" stroke="#3B3B3B"/>
</g>
<rect x="209.5" y="209.5" width="199" height="199" rx="5.5" transform="rotate(180 209.5 209.5)" stroke="#3B3B3B"/>
<g clip-path="url(#clip1_44_388)">
<path d="M11 224.5H211M11 230.5H211M10.5 236.5H210.5M11 242.5H211M10.5 248.5H210.5" stroke="#3B3B3B"/>
</g>
<path d="M10.4364 265H185M10.4364 271H185M10 277H184.564M10.4364 283H185M10 289H184.564" stroke="#3B3B3B"/>
<defs>
<clipPath id="clip0_44_388">
<rect x="210" y="210" width="200" height="200" rx="6" transform="rotate(180 210 210)" fill="white"/>
</clipPath>
<clipPath id="clip1_44_388">
<rect width="125" height="33" fill="white" transform="translate(10 218)"/>
</clipPath>
</defs>
</svg>
