<svg width="200" height="200" viewBox="0 0 200 200" fill="none" xmlns="http://www.w3.org/2000/svg">
<g clip-path="url(#clip0_33_391)">
<path d="M189 199C190.091 190.447 196.121 188.784 199 189.021" stroke="#3B3B3B"/>
<path d="M179 199C181.182 181.893 193.242 178.567 199 179.042" stroke="#3B3B3B"/>
<path d="M169 199C172.273 173.34 190.364 168.351 199 169.064" stroke="#3B3B3B"/>
<path d="M159 199C163.364 164.787 187.485 158.134 199 159.085" stroke="#3B3B3B"/>
<path d="M149 199C154.455 156.234 184.606 147.918 199 149.106" stroke="#3B3B3B"/>
<path d="M139 199C145.545 147.68 181.727 137.702 199 139.127" stroke="#3B3B3B"/>
<path d="M129 199C136.636 139.127 178.848 127.485 199 129.148" stroke="#3B3B3B"/>
<path d="M119 199C127.727 130.574 175.97 117.269 199 119.169" stroke="#3B3B3B"/>
<path d="M109 199C118.818 122.021 173.091 107.052 199 109.191" stroke="#3B3B3B"/>
<path d="M99 199C109.909 113.467 170.212 96.8359 199 99.2119" stroke="#3B3B3B"/>
<path d="M89 199C101 104.914 167.333 86.6195 199 89.233" stroke="#3B3B3B"/>
<path d="M79 199C92.0909 96.3608 164.455 76.4031 199 79.2542" stroke="#3B3B3B"/>
<path d="M69 199C83.1818 87.8075 161.576 66.1867 199 69.2754" stroke="#3B3B3B"/>
<path d="M59 199C74.2727 79.2542 158.697 55.9703 199 59.2966" stroke="#3B3B3B"/>
<path d="M49 200C65.3636 71.701 155.818 46.7539 199 50.3178" stroke="#3B3B3B"/>
<path d="M39 199C56.4545 62.1477 152.939 35.5375 199 39.339" stroke="#3B3B3B"/>
<path d="M29 199C47.5455 53.5944 150.061 25.3211 199 29.3601" stroke="#3B3B3B"/>
<path d="M19 199C38.6364 45.0411 147.182 15.1047 199 19.3813" stroke="#3B3B3B"/>
<path d="M9 199C29.7273 36.4879 144.303 4.88829 199 9.40252" stroke="#3B3B3B"/>
<path d="M-1 199C20.8182 27.9346 141.424 -5.32811 199 -0.576296" stroke="#3B3B3B"/>
<path d="M-11 199C11.9091 19.3813 138.545 -15.5445 199 -10.5551" stroke="#3B3B3B"/>
<path d="M-20 199C4 10.8281 136.667 -25.7609 200 -20.5339" stroke="#3B3B3B"/>
<path d="M-29 194C-5 5.82806 127.667 -30.7609 191 -25.5339" stroke="#3B3B3B"/>
<path d="M-38 189C-14 0.828064 118.667 -35.7609 182 -30.5339" stroke="#3B3B3B"/>
<path d="M-47 184C-23 -4.17194 109.667 -40.7609 173 -35.5339" stroke="#3B3B3B"/>
<path d="M-56 179C-32 -9.17194 100.667 -45.7609 164 -40.5339" stroke="#3B3B3B"/>
<path d="M-65 174C-41 -14.1719 91.6667 -50.7609 155 -45.5339" stroke="#3B3B3B"/>
</g>
<rect x="0.5" y="0.5" width="199" height="199" rx="5.5" stroke="#3B3B3B"/>
<g clip-path="url(#clip1_33_391)">
<path d="M11 199C9.90909 190.447 3.87879 188.784 1 189.021" stroke="#3B3B3B"/>
<path d="M21 199C18.8182 181.893 6.75758 178.567 0.999999 179.042" stroke="#3B3B3B"/>
<path d="M31 199C27.7273 173.34 9.63636 168.351 1 169.064" stroke="#3B3B3B"/>
<path d="M41 199C36.6364 164.787 12.5152 158.134 0.999999 159.085" stroke="#3B3B3B"/>
<path d="M51 199C45.5455 156.234 15.3939 147.918 1 149.106" stroke="#3B3B3B"/>
<path d="M61 199C54.4545 147.68 18.2727 137.702 1 139.127" stroke="#3B3B3B"/>
<path d="M71 199C63.3636 139.127 21.1515 127.485 0.999999 129.148" stroke="#3B3B3B"/>
<path d="M81 199C72.2727 130.574 24.0303 117.269 0.999998 119.169" stroke="#3B3B3B"/>
<path d="M91 199C81.1818 122.021 26.9091 107.052 1 109.191" stroke="#3B3B3B"/>
<path d="M101 199C90.0909 113.467 29.7879 96.8359 1 99.2119" stroke="#3B3B3B"/>
<path d="M111 199C99 104.914 32.6667 86.6195 1 89.233" stroke="#3B3B3B"/>
<path d="M121 199C107.909 96.3608 35.5455 76.4031 0.999999 79.2542" stroke="#3B3B3B"/>
<path d="M131 199C116.818 87.8075 38.4242 66.1867 0.999998 69.2754" stroke="#3B3B3B"/>
<path d="M141 199C125.727 79.2542 41.303 55.9703 0.999997 59.2966" stroke="#3B3B3B"/>
<path d="M151 200C134.636 71.701 44.1818 46.7539 0.999996 50.3178" stroke="#3B3B3B"/>
<path d="M161 199C143.545 62.1477 47.0606 35.5375 0.999995 39.339" stroke="#3B3B3B"/>
<path d="M171 199C152.455 53.5944 49.9394 25.3211 1 29.3601" stroke="#3B3B3B"/>
<path d="M181 199C161.364 45.0411 52.8182 15.1047 1 19.3813" stroke="#3B3B3B"/>
<path d="M191 199C170.273 36.4879 55.697 4.88829 0.999992 9.40252" stroke="#3B3B3B"/>
<path d="M201 199C179.182 27.9346 58.5758 -5.32811 1 -0.576296" stroke="#3B3B3B"/>
<path d="M211 199C188.091 19.3813 61.4545 -15.5445 0.99999 -10.5551" stroke="#3B3B3B"/>
<path d="M220 199C196 10.8281 63.3333 -25.7609 0 -20.5339" stroke="#3B3B3B"/>
<path d="M229 194C205 5.82806 72.3333 -30.7609 9 -25.5339" stroke="#3B3B3B"/>
<path d="M238 189C214 0.828064 81.3333 -35.7609 18 -30.5339" stroke="#3B3B3B"/>
<path d="M247 184C223 -4.17194 90.3333 -40.7609 27 -35.5339" stroke="#3B3B3B"/>
<path d="M256 179C232 -9.17194 99.3333 -45.7609 36 -40.5339" stroke="#3B3B3B"/>
<path d="M265 174C241 -14.1719 108.333 -50.7609 45 -45.5339" stroke="#3B3B3B"/>
</g>
<defs>
<clipPath id="clip0_33_391">
<rect width="200" height="200" rx="6" fill="white"/>
</clipPath>
<clipPath id="clip1_33_391">
<rect width="200" height="200" rx="6" transform="matrix(-1 0 0 1 200 0)" fill="white"/>
</clipPath>
</defs>
</svg>
