<svg width="200" height="200" viewBox="0 0 200 200" fill="none" xmlns="http://www.w3.org/2000/svg">
<g clip-path="url(#clip0_285_355)">
<path d="M189 199C190.091 190.447 196.121 188.784 199 189.021" stroke="#3B3B3B"/>
<path d="M179 199C181.182 181.893 193.242 178.567 199 179.042" stroke="#3B3B3B"/>
<path d="M169 199C172.273 173.34 190.364 168.351 199 169.064" stroke="#3B3B3B"/>
<path d="M159 199C163.364 164.787 187.485 158.134 199 159.085" stroke="#3B3B3B"/>
<path d="M149 199C154.455 156.234 184.606 147.918 199 149.106" stroke="#3B3B3B"/>
<path d="M139 199C145.545 147.68 181.727 137.702 199 139.127" stroke="#3B3B3B"/>
<path d="M129 199C136.636 139.127 178.848 127.485 199 129.148" stroke="#3B3B3B"/>
<path d="M119 199C127.727 130.574 175.97 117.269 199 119.169" stroke="#3B3B3B"/>
<path d="M109 199C118.818 122.021 173.091 107.052 199 109.191" stroke="#3B3B3B"/>
<path d="M99 199C109.909 113.467 170.212 96.8359 199 99.2119" stroke="#3B3B3B"/>
<path d="M89 199C101 104.914 167.333 86.6195 199 89.233" stroke="#3B3B3B"/>
<path d="M79 199C92.0909 96.3608 164.455 76.4031 199 79.2542" stroke="#3B3B3B"/>
<path d="M69 199C83.1818 87.8075 161.576 66.1867 199 69.2754" stroke="#3B3B3B"/>
<path d="M60 199C75.1636 79.2542 158.985 55.9703 199 59.2966" stroke="#3B3B3B"/>
<path d="M50 200C66.2545 71.701 156.106 46.7539 199 50.3178" stroke="#3B3B3B"/>
<path d="M40 199C57.3455 62.1477 153.227 35.5375 199 39.339" stroke="#3B3B3B"/>
<path d="M30 199C48.4364 53.5944 150.348 25.3211 199 29.3601" stroke="#3B3B3B"/>
<path d="M20 199C39.5273 45.0411 147.47 15.1047 199 19.3813" stroke="#3B3B3B"/>
<path d="M10 199C30.6182 36.4879 144.591 4.88829 199 9.40252" stroke="#3B3B3B"/>
<path d="M0 199C21.7091 27.9346 141.712 -5.32811 199 -0.576296" stroke="#3B3B3B"/>
<path d="M-10 199C12.8 19.3813 138.833 -15.5445 199 -10.5551" stroke="#3B3B3B"/>
<path d="M-19 199C4.89091 10.8281 136.955 -25.7609 200 -20.5339" stroke="#3B3B3B"/>
<path d="M-28 194C-4.10909 5.82806 127.955 -30.7609 191 -25.5339" stroke="#3B3B3B"/>
<path d="M-37 189C-13.1091 0.828064 118.955 -35.7609 182 -30.5339" stroke="#3B3B3B"/>
<path d="M-46 184C-22.1091 -4.17194 109.955 -40.7609 173 -35.5339" stroke="#3B3B3B"/>
<path d="M-55 179C-31.1091 -9.17194 100.955 -45.7609 164 -40.5339" stroke="#3B3B3B"/>
<path d="M-64 174C-40.1091 -14.1719 91.9545 -50.7609 155 -45.5339" stroke="#3B3B3B"/>
</g>
<rect x="0.5" y="0.5" width="199" height="199" rx="5.5" stroke="#3B3B3B"/>
<defs>
<clipPath id="clip0_285_355">
<rect width="200" height="200" rx="6" fill="white"/>
</clipPath>
</defs>
</svg>
