<svg width="200" height="200" viewBox="0 0 200 200" fill="none" xmlns="http://www.w3.org/2000/svg">
<g clip-path="url(#clip0_280_137)">
<path d="M11 1C9.90909 9.55327 3.87879 11.2164 1 10.9788" stroke="#3B3B3B"/>
<path d="M21 1C18.8182 18.1065 6.75758 21.4328 0.999999 20.9576" stroke="#3B3B3B"/>
<path d="M31 1C27.7273 26.6598 9.63636 31.6492 1 30.9364" stroke="#3B3B3B"/>
<path d="M41 1C36.6364 35.2131 12.5152 41.8656 0.999999 40.9153" stroke="#3B3B3B"/>
<path d="M51 1C45.5455 43.7663 15.3939 52.082 1 50.8941" stroke="#3B3B3B"/>
<path d="M61 1C54.4545 52.3196 18.2727 62.2984 1 60.8729" stroke="#3B3B3B"/>
<path d="M71 0.999998C63.3636 60.8729 21.1515 72.5148 0.999999 70.8517" stroke="#3B3B3B"/>
<path d="M81 1C72.2727 69.4262 24.0303 82.7312 0.999998 80.8305" stroke="#3B3B3B"/>
<path d="M91 1C81.1818 77.9794 26.9091 92.9477 1 90.8093" stroke="#3B3B3B"/>
<path d="M101 1C90.0909 86.5327 29.7879 103.164 1 100.788" stroke="#3B3B3B"/>
<path d="M111 0.999998C99 95.086 32.6667 113.38 1 110.767" stroke="#3B3B3B"/>
<path d="M121 1.00001C107.909 103.639 35.5455 123.597 0.999999 120.746" stroke="#3B3B3B"/>
<path d="M131 0.999995C116.818 112.193 38.4242 133.813 0.999998 130.725" stroke="#3B3B3B"/>
<path d="M141 0.999996C125.727 120.746 41.303 144.03 0.999997 140.703" stroke="#3B3B3B"/>
<path d="M151 -1.92109e-06C134.636 128.299 44.1818 153.246 0.999996 149.682" stroke="#3B3B3B"/>
<path d="M161 1C143.545 137.852 47.0606 164.462 0.999995 160.661" stroke="#3B3B3B"/>
<path d="M171 1C152.455 146.406 49.9394 174.679 1 170.64" stroke="#3B3B3B"/>
<path d="M181 1C161.364 154.959 52.8182 184.895 1 180.619" stroke="#3B3B3B"/>
<path d="M191 1C170.273 163.512 55.697 195.112 0.999992 190.597" stroke="#3B3B3B"/>
<path d="M201 1.00001C179.182 172.065 58.5758 205.328 1 200.576" stroke="#3B3B3B"/>
<path d="M211 0.999995C188.091 180.619 61.4545 215.545 0.99999 210.555" stroke="#3B3B3B"/>
<path d="M220 0.999996C196 189.172 63.3333 225.761 0 220.534" stroke="#3B3B3B"/>
<path d="M229 6C205 194.172 72.3333 230.761 9 225.534" stroke="#3B3B3B"/>
<path d="M238 11C214 199.172 81.3333 235.761 18 230.534" stroke="#3B3B3B"/>
<path d="M247 16C223 204.172 90.3333 240.761 27 235.534" stroke="#3B3B3B"/>
<path d="M256 21C232 209.172 99.3333 245.761 36 240.534" stroke="#3B3B3B"/>
<path d="M265 26C241 214.172 108.333 250.761 45 245.534" stroke="#3B3B3B"/>
</g>
<rect x="199.5" y="199.5" width="199" height="199" rx="5.5" transform="rotate(180 199.5 199.5)" stroke="#3B3B3B"/>
<defs>
<clipPath id="clip0_280_137">
<rect x="200" y="200" width="200" height="200" rx="6" transform="rotate(180 200 200)" fill="white"/>
</clipPath>
</defs>
</svg>
